<?xml version="1.0" encoding="UTF-8" standalone="no"?>
<svg
   width="350"
   height="500"
   viewBox="0 0 350 500"
   version="1.1"
   id="svg1"
   sodipodi:docname="20170921181616!Atlassian-logo.svg"
   inkscape:version="1.4.2 (ebf0e940d0, 2025-05-08)"
   xmlns:inkscape="http://www.inkscape.org/namespaces/inkscape"
   xmlns:sodipodi="http://sodipodi.sourceforge.net/DTD/sodipodi-0.dtd"
   xmlns="http://www.w3.org/2000/svg"
   xmlns:svg="http://www.w3.org/2000/svg">
  <defs
     id="defs1" />
  <sodipodi:namedview
     id="namedview1"
     pagecolor="#ffffff"
     bordercolor="#666666"
     borderopacity="1.0"
     inkscape:showpageshadow="2"
     inkscape:pageopacity="0.0"
     inkscape:pagecheckerboard="0"
     inkscape:deskcolor="#d1d1d1"
     showgrid="true"
     showguides="true"
     inkscape:zoom="1"
     inkscape:cx="149"
     inkscape:cy="107"
     inkscape:window-width="2558"
     inkscape:window-height="1392"
     inkscape:window-x="0"
     inkscape:window-y="0"
     inkscape:window-maximized="1"
     inkscape:current-layer="svg1">
    <inkscape:grid
       id="grid1"
       units="px"
       originx="0"
       originy="0"
       spacingx="1"
       spacingy="1"
       empcolor="#3f3fff"
       empopacity="0.25098039"
       color="#3f3fff"
       opacity="0.1254902"
       empspacing="5"
       enabled="true"
       visible="true" />
    <sodipodi:guide
       position="88,325"
       orientation="-1,0"
       id="guide1"
       inkscape:locked="false"
       inkscape:label=""
       inkscape:color="rgb(0,134,229)" />
    <sodipodi:guide
       position="270,330"
       orientation="-1,0"
       id="guide2"
       inkscape:locked="false"
       inkscape:label=""
       inkscape:color="rgb(0,134,229)" />
  </sodipodi:namedview>
  <g
     id="charlie"
     fill="#5ba5ce"
     transform="matrix(11.847813,0,0,11.847813,24.999654,198.73598)">
    <path
       id="earth"
       d="M 25.205912,0.26542012 C 25.09356,0.11062722 24.914101,0.01831953 24.726478,0.01831953 c -0.09699,0 -0.192604,0.02513609 -0.276453,0.07214201 C 20.933346,2.0662722 16.856428,3.1113373 12.660377,3.1123314 8.464327,3.1113373 4.3876855,2.0662722 0.87100629,0.09060355 0.78715723,0.04345562 0.69154717,0.01846154 0.59469182,0.01846154 c -0.18803773,0 -0.36722012,0.09216568 -0.47943396,0.24653254 -0.16645283,0.22707693 -0.17171069,0.60823669 0.11179874,0.83531362 1.7612453,1.3476923 3.7027799,2.4 5.7707799,3.1194319 2.1435472,0.7464143 4.3849185,1.1254438 6.6617105,1.1264379 h 0.0017 c 2.27703,-9.941e-4 4.518401,-0.3800236 6.66181,-1.1264379 C 21.391195,3.5000237 23.332591,2.448 25.096189,1.0986035 25.377484,0.87308876 25.372088,0.49192899 25.205912,0.26542012" />
    <path
       id="charlie-head"
       d="m 12.663421,7.3364734 c 0.899095,0 1.420592,-0.055527 1.603925,-0.055527 0.221799,0 0.433912,0.1866036 0.433912,0.4479054 0,0.076402 -0.01757,0.1307929 -0.03501,0.1789349 -0.119271,0.3271953 -0.662768,1.5044734 -1.674491,2.5144623 -0.113459,0.113183 -0.242138,0.134343 -0.33083,0.134343 h -0.0011 c -0.08828,0 -0.216956,-0.02116 -0.330277,-0.134343 C 11.317689,9.4122601 10.774053,8.234982 10.65506,7.9077867 10.63749,7.8596447 10.61992,7.8052541 10.61992,7.7288518 c 0,-0.2613018 0.212252,-0.4479054 0.434189,-0.4479054 0.183195,0 0.704553,0.055527 1.603371,0.055527 h 0.0059" />
    <path
       id="charlie-body"
       d="m 21.164138,5.8937751 c -0.08371,-0.065325 -0.18444,-0.099408 -0.286553,-0.099408 -0.05659,0 -0.113874,0.010793 -0.168252,0.032095 C 19.69,6.2265089 18.655031,6.5302722 17.710138,6.756213 17.517535,6.802367 17.361874,6.9492071 17.297258,7.1255858 16.608893,9.0607811 14.851245,10.903385 13.00712,12.83361 c -0.07403,0.07214 -0.177661,0.167289 -0.346466,0.167289 -0.16839,0 -0.271056,-0.09216 -0.346465,-0.167289 C 10.47034,10.903385 8.7126918,9.0673136 8.0241887,7.1318343 7.9595723,6.9557396 7.8037736,6.8087574 7.6114465,6.7626035 6.6661384,6.5365207 5.6284025,6.2233846 4.6104528,5.8234793 4.5557987,5.8020355 4.4985157,5.7913846 4.4416478,5.7913846 c -0.1019748,0 -0.2007673,0.032947 -0.2843396,0.098414 -0.1307547,0.1022485 -0.1984151,0.2681184 -0.1830566,0.4274556 0.1562138,1.6092781 0.7756729,3.1824852 1.8937987,4.8311008 1.0510189,1.550059 2.4219371,2.984663 3.7473334,4.372118 2.4421383,2.556497 4.7492323,4.971125 4.9516603,7.771172 0.01813,0.252497 0.223182,0.448331 0.47044,0.448331 h 2.869132 c 0.129233,0 0.252654,-0.05453 0.3419,-0.150532 0.08897,-0.09614 0.135874,-0.225089 0.129509,-0.357728 -0.09035,-1.872 -0.77678,-3.746698 -2.09844,-5.730604 -0.277006,-0.415952 -0.573799,-0.820686 -0.884013,-1.216757 -0.125912,-0.161325 -0.0732,-0.361704 0.02325,-0.462675 0.0952,-0.10026 0.191081,-0.200094 0.287245,-0.301207 1.325534,-1.387597 2.696176,-2.822059 3.747472,-4.372118 1.117987,-1.6487576 1.737446,-3.2127339 1.89366,-4.821728 0.01563,-0.1616095 -0.05604,-0.3333018 -0.183057,-0.4328521" />
    <path
       id="charlie-leg"
       d="m 9.5818994,17.698367 c -0.067937,-0.07285 -0.1675598,-0.147266 -0.3349812,-0.147266 -0.2141886,0 -0.3413459,0.151952 -0.3893584,0.22736 -1.2068177,1.884782 -1.830151,3.663764 -1.9162139,5.451551 -0.00636,0.131787 0.040956,0.262722 0.1299245,0.359148 0.089107,0.09557 0.2141887,0.150816 0.3431447,0.150816 h 2.8644279 c 0.246289,0 0.453975,-0.197964 0.4721,-0.450177 0.0624,-0.861586 0.323774,-1.725302 0.799472,-2.6329 0.164931,-0.313988 0.03681,-0.608946 -0.05811,-0.735053 -0.472101,-0.630106 -1.050327,-1.302248 -1.9104026,-2.223479" />
  </g>
  <path
     style="fill:#783131;fill-opacity:1;stroke-width:0.746379"
     d="m 139.20779,213.08983 c -36.35249,-3.79361 -51.055587,-15.75199 -51.205637,-41.6468 -0.07368,-12.71149 1.72931,-18.69481 7.665576,-25.43876 3.760994,-4.27272 13.967691,-10.38448 17.345911,-10.38671 0.65332,-4.3e-4 -0.13914,-1.45366 -1.761,-3.22939 -7.02072,-7.68671 -9.30642,-26.06634 -4.75457,-38.232238 3.74254,-10.00284 13.6486,-18.428003 25.03291,-21.290654 l 4.7776,-1.20136 -1.97457,-2.108278 c -6.6517,-7.102026 -5.16683,-23.058988 2.76695,-29.734815 2.73608,-2.302254 16.93594,-7.70213 20.25403,-7.70213 3.63637,0 18.20279,-5.499904 22.62749,-8.543553 L 185.1798,20 l 9.10098,3.164073 c 22.16484,7.705877 32.23386,17.08175 33.28304,30.991778 0.47225,6.260938 -1.05665,12.215387 -3.95411,15.399789 l -1.91831,2.108278 4.77762,1.20136 c 11.38431,2.862651 21.29036,11.287814 25.0329,21.290654 4.55185,12.165898 2.26615,30.545528 -4.75457,38.232238 -1.62188,1.77573 -2.41432,3.22896 -1.761,3.22939 3.37822,0.002 13.58491,6.11399 17.3459,10.38671 5.93627,6.74395 7.73925,12.72727 7.6656,25.43876 -0.15295,26.39387 -14.7703,37.90155 -53.03791,41.75475 -12.19338,1.22777 -65.66393,1.15352 -77.75215,-0.10788 z"
     id="path1" />
</svg>
